<?xml version="1.0" encoding="UTF-8"?>
<svg id="uuid-4ca5ae38-b26f-4024-9059-715dd95a3ebf" data-name="Layer 1" xmlns="http://www.w3.org/2000/svg" viewBox="0 0 746.87 314.87">
  <defs>
    <style>
      .uuid-f91f9fbd-ea0d-4e26-9081-e1910f89487f {
        letter-spacing: .1em;
      }

      .uuid-aee54da3-135d-4d0f-99c1-3c8f7d44b201 {
        fill: #67acde;
      }

      .uuid-29295665-7f51-4c40-a56e-e7b3b3047cb5 {
        fill: none;
      }

      .uuid-29295665-7f51-4c40-a56e-e7b3b3047cb5, .uuid-79b63290-63c9-49d3-bd15-27538b1e1d31 {
        stroke: #eeb678;
        stroke-miterlimit: 10;
        stroke-width: 3.48px;
      }

      .uuid-6d299d95-f280-4503-ac9c-6f8d6c5849a3 {
        fill: #f7efeb;
      }

      .uuid-2c514670-d889-4220-92d8-e691b0b2c6d0 {
        letter-spacing: .15em;
      }

      .uuid-79b63290-63c9-49d3-bd15-27538b1e1d31 {
        fill: #eeb678;
      }

      .uuid-7f92923f-c967-4eae-80be-4913b7d85933 {
        letter-spacing: .1em;
      }

      .uuid-1cabd7c4-b43b-4052-a467-399a79de46ca {
        letter-spacing: .13em;
      }

      .uuid-43bfec68-0222-464b-887e-e9389a6fed31 {
        font-family: Bilo-Medium, Bilo;
        font-size: 91.99px;
        font-weight: 500;
      }

      .uuid-43bfec68-0222-464b-887e-e9389a6fed31, .uuid-d2fe5b9c-7ba1-403d-974b-71908dcf8bca {
        fill: #ec6a5d;
      }
    </style>
  </defs>
  <g>
    <path d="m205.81,152.77l27.67-6.36c1.98-.45,3.2-2.4,2.75-4.35-.45-1.98-2.4-3.2-4.35-2.75l-27.85,6.36c.76,2.29,1.36,4.66,1.77,7.09Zm-7.54-18.84l31.95-23.36c1.63-1.18,1.98-3.44.8-5.08-1.18-1.63-3.48-1.98-5.11-.8l-31.95,23.36c-.1.07-.21.14-.28.24,1.7,1.77,3.2,3.65,4.55,5.67,0-.03.03-.03.03-.03Zm-8.8-27.54c1.01-1.74.38-3.96-1.36-4.97-1.74-1.01-3.96-.38-4.97,1.36l-7.61,13.28c2.29.87,4.52,1.91,6.61,3.13l7.34-12.79Zm-27.05,6.78V35.26c0-2.02-1.63-3.65-3.62-3.65s-3.65,1.63-3.65,3.65v77.91c1.22-.1,2.43-.14,3.65-.14s2.43.03,3.62.14Zm-26.11,5.53c2.23-1.22,4.59-2.26,6.99-3.06-.14-.31-.35-.59-.59-.87l-19.43-19.43c-1.43-1.39-3.72-1.39-5.15,0-1.43,1.43-1.43,3.75,0,5.18l18.18,18.18Zm-34.35,11.06l16.2,6.05c1.29-2.12,2.75-4.17,4.42-6.05-.17-.1-.38-.21-.59-.28l-17.49-6.54c-1.88-.73-4,.24-4.69,2.12-.7,1.88.24,4,2.16,4.69Zm56.81,99.09c25.52,0,48.71-14.05,60.56-36.61.94-1.81.24-4-1.53-4.94-1.81-.94-4-.24-4.94,1.53-10.57,20.2-31.29,32.72-54.1,32.72s-43.22-12.38-53.89-32.37c-.94-1.77-3.13-2.43-4.9-1.49-1.81.97-2.47,3.16-1.53,4.94,11.93,22.36,35.05,36.23,60.32,36.23Zm72.63-30.18c-13.39,27.64-41.89,45.47-72.63,45.47s-58.65-17.24-72.38-44.99c-.87-1.81-3.06-2.54-4.87-1.63-1.81.87-2.54,3.06-1.67,4.87,14.98,30.25,45.2,49.06,78.92,49.06s64.56-19.47,79.2-49.58c.87-1.81.14-4-1.67-4.87-1.84-.9-4-.14-4.9,1.67Zm-154.92-53.99l35.25,8.31c.38-2.43.97-4.8,1.74-7.09l-35.32-8.31c-1.95-.45-3.93.76-4.38,2.71-.49,1.98.73,3.93,2.71,4.38Zm181.31,63.59c-1.81-.9-4-.17-4.87,1.63-17.87,36.09-53.92,58.48-94.15,58.48s-75.83-22.15-93.77-57.82c-.9-1.81-3.09-2.54-4.9-1.63-1.81.9-2.5,3.09-1.6,4.9,19.16,38.14,57.61,61.85,100.27,61.85s81.56-23.95,100.65-62.55c.9-1.81.17-4-1.63-4.87Z"/>
    <path class="uuid-6d299d95-f280-4503-ac9c-6f8d6c5849a3" d="m158.95,9.53C76.38,9.53,9.42,76.49,9.42,159.07s66.96,149.57,149.53,149.57,149.57-66.96,149.57-149.57S241.55,9.53,158.95,9.53Zm79.02,192.33c-14.64,30.11-45.72,49.58-79.2,49.58s-63.94-18.81-78.92-49.06c-.87-1.81-.14-4,1.67-4.87,1.81-.9,4-.17,4.87,1.63,13.73,27.74,41.48,44.99,72.38,44.99s59.24-17.84,72.63-45.47c.9-1.81,3.06-2.57,4.9-1.67,1.81.87,2.54,3.06,1.67,4.87Zm-84.38-67.13c1.74-2.61,4.1-4.66,6.85-5.88,5.08-2.23,9.11-.73,9.11-.73l4.9,1.74c4.42,1.56,8,5.11,9.73,9.7,3.44,9.21,1.67,21,1.67,21-.7,6.88-6.88,15.96-10.4,20.62-1.63,2.16-3.72,3.86-6.12,4.94-6.29,2.89-19.43,7.34-31.46,1.7-16.55-7.75-9.25-25.87-9.25-25.87,1.49-4.42,8.52-9.04,12.13-11.2,1.81-1.08,3.37-2.5,4.66-4.21,2.68-3.51,6.29-8.93,8.17-11.82Zm5.18,86.81c22.81,0,43.53-12.52,54.1-32.72.94-1.77,3.13-2.47,4.94-1.53,1.77.94,2.47,3.13,1.53,4.94-11.86,22.56-35.05,36.61-60.56,36.61s-48.4-13.87-60.32-36.23c-.94-1.77-.28-3.96,1.53-4.94,1.77-.94,3.96-.28,4.9,1.49,10.67,19.99,31.32,32.37,53.89,32.37Zm77.46-79.48c.45,1.95-.76,3.89-2.75,4.35l-27.67,6.36c-.42-2.43-1.01-4.8-1.77-7.09l27.85-6.36c1.95-.45,3.89.76,4.35,2.75Zm-42.28-14.01l31.95-23.36c1.63-1.18,3.93-.83,5.11.8,1.18,1.63.83,3.89-.8,5.08l-31.95,23.36s-.03,0-.03.03c-1.36-2.02-2.85-3.89-4.55-5.67.07-.1.17-.17.28-.24Zm-10.81-25.28c1.01-1.74,3.23-2.36,4.97-1.36,1.74,1.01,2.36,3.23,1.36,4.97l-7.34,12.79c-2.09-1.22-4.31-2.26-6.61-3.13l7.61-13.28Zm-27.99-67.52c0-2.02,1.63-3.65,3.65-3.65s3.62,1.63,3.62,3.65v77.91c-1.18-.1-2.4-.14-3.62-.14s-2.43.03-3.65.14V35.26Zm-37.03,60.08c1.43-1.39,3.72-1.39,5.15,0l19.43,19.43c.24.28.45.56.59.87-2.4.8-4.76,1.84-6.99,3.06l-18.18-18.18c-1.43-1.43-1.43-3.75,0-5.18Zm-18.32,29.73c.7-1.88,2.82-2.85,4.69-2.12l17.49,6.54c.21.07.42.17.59.28-1.67,1.88-3.13,3.93-4.42,6.05l-16.2-6.05c-1.91-.7-2.85-2.82-2.16-4.69Zm-26.04,15.23c.45-1.95,2.43-3.16,4.38-2.71l35.32,8.31c-.76,2.29-1.36,4.66-1.74,7.09l-35.25-8.31c-1.98-.45-3.2-2.4-2.71-4.38Zm185.65,72.84c-19.09,38.59-57.64,62.55-100.65,62.55s-81.11-23.71-100.27-61.85c-.9-1.81-.21-4,1.6-4.9,1.81-.9,4-.17,4.9,1.63,17.94,35.67,53.85,57.82,93.77,57.82s76.28-22.39,94.15-58.48c.87-1.81,3.06-2.54,4.87-1.63,1.81.87,2.54,3.06,1.63,4.87Z"/>
    <path class="uuid-79b63290-63c9-49d3-bd15-27538b1e1d31" d="m185.86,160.56c-.7,6.88-6.88,15.96-10.4,20.62-1.63,2.16-3.72,3.86-6.12,4.94-6.29,2.89-19.43,7.34-31.46,1.7-16.55-7.75-9.25-25.87-9.25-25.87,1.49-4.42,8.52-9.04,12.13-11.2,1.81-1.08,3.37-2.5,4.66-4.21,2.68-3.51,6.29-8.93,8.17-11.82,1.74-2.61,4.1-4.66,6.85-5.88,5.08-2.23,9.11-.73,9.11-.73l4.9,1.74c4.42,1.56,8,5.11,9.73,9.7,3.44,9.21,1.67,21,1.67,21Z"/>
    <path class="uuid-29295665-7f51-4c40-a56e-e7b3b3047cb5" d="m185.86,160.56c-.7,6.88-6.88,15.96-10.4,20.62-1.63,2.16-3.72,3.86-6.12,4.94-6.29,2.89-19.43,7.34-31.46,1.7-16.55-7.75-9.25-25.87-9.25-25.87,1.49-4.42,8.52-9.04,12.13-11.2,1.81-1.08,3.37-2.5,4.66-4.21,2.68-3.51,6.29-8.93,8.17-11.82,1.74-2.61,4.1-4.66,6.85-5.88,5.08-2.23,9.11-.73,9.11-.73l4.9,1.74c4.42,1.56,8,5.11,9.73,9.7,3.44,9.21,1.67,21,1.67,21Z"/>
    <path class="uuid-d2fe5b9c-7ba1-403d-974b-71908dcf8bca" d="m162.42,35.26v77.91c-1.18-.1-2.4-.14-3.62-.14s-2.43.03-3.65.14V35.26c0-2.02,1.63-3.65,3.65-3.65s3.62,1.63,3.62,3.65Z"/>
    <path class="uuid-d2fe5b9c-7ba1-403d-974b-71908dcf8bca" d="m233.49,146.41l-27.67,6.36c-.42-2.43-1.01-4.8-1.77-7.09l27.85-6.36c1.95-.45,3.89.76,4.35,2.75.45,1.95-.76,3.89-2.75,4.35Z"/>
    <path class="uuid-d2fe5b9c-7ba1-403d-974b-71908dcf8bca" d="m113.47,145.89c-.76,2.29-1.36,4.66-1.74,7.09l-35.25-8.31c-1.98-.45-3.2-2.4-2.71-4.38.45-1.95,2.43-3.16,4.38-2.71l35.32,8.31Z"/>
    <path class="uuid-d2fe5b9c-7ba1-403d-974b-71908dcf8bca" d="m143.3,115.64c-2.4.8-4.76,1.84-6.99,3.06l-18.18-18.18c-1.43-1.43-1.43-3.75,0-5.18,1.43-1.39,3.72-1.39,5.15,0l19.43,19.43c.24.28.45.56.59.87Z"/>
    <path class="uuid-d2fe5b9c-7ba1-403d-974b-71908dcf8bca" d="m230.22,110.57l-31.95,23.36s-.03,0-.03.03c-1.36-2.02-2.85-3.89-4.55-5.67.07-.1.17-.17.28-.24l31.95-23.36c1.63-1.18,3.93-.83,5.11.8,1.18,1.63.83,3.89-.8,5.08Z"/>
    <path class="uuid-d2fe5b9c-7ba1-403d-974b-71908dcf8bca" d="m189.47,106.39l-7.34,12.79c-2.09-1.22-4.31-2.26-6.61-3.13l7.61-13.28c1.01-1.74,3.23-2.36,4.97-1.36,1.74,1.01,2.36,3.23,1.36,4.97Z"/>
    <path class="uuid-d2fe5b9c-7ba1-403d-974b-71908dcf8bca" d="m122.58,129.76c-1.67,1.88-3.13,3.93-4.42,6.05l-16.2-6.05c-1.91-.7-2.85-2.82-2.16-4.69.7-1.88,2.82-2.85,4.69-2.12l17.49,6.54c.21.07.42.17.59.28Z"/>
    <path class="uuid-aee54da3-135d-4d0f-99c1-3c8f7d44b201" d="m219.34,192.23c-11.86,22.56-35.05,36.61-60.56,36.61s-48.4-13.87-60.32-36.23c-.94-1.77-.28-3.96,1.53-4.94,1.77-.94,3.96-.28,4.9,1.49,10.67,19.99,31.32,32.37,53.89,32.37s43.53-12.52,54.1-32.72c.94-1.77,3.13-2.47,4.94-1.53,1.77.94,2.47,3.13,1.53,4.94Z"/>
    <path class="uuid-aee54da3-135d-4d0f-99c1-3c8f7d44b201" d="m237.97,201.86c-14.64,30.11-45.72,49.58-79.2,49.58s-63.94-18.81-78.92-49.06c-.87-1.81-.14-4,1.67-4.87,1.81-.9,4-.17,4.87,1.63,13.73,27.74,41.48,44.99,72.38,44.99s59.24-17.84,72.63-45.47c.9-1.81,3.06-2.57,4.9-1.67,1.81.87,2.54,3.06,1.67,4.87Z"/>
    <path class="uuid-aee54da3-135d-4d0f-99c1-3c8f7d44b201" d="m259.42,213.13c-19.09,38.59-57.64,62.55-100.65,62.55s-81.11-23.71-100.27-61.85c-.9-1.81-.21-4,1.6-4.9,1.81-.9,4-.17,4.9,1.63,17.94,35.67,53.85,57.82,93.77,57.82s76.28-22.39,94.15-58.48c.87-1.81,3.06-2.54,4.87-1.63,1.81.87,2.54,3.06,1.63,4.87Z"/>
  </g>
  <text class="uuid-43bfec68-0222-464b-887e-e9389a6fed31" transform="translate(347.56 162.31)"><tspan class="uuid-f91f9fbd-ea0d-4e26-9081-e1910f89487f" x="0" y="0">P</tspan><tspan class="uuid-7f92923f-c967-4eae-80be-4913b7d85933" x="62" y="0">ATA</tspan><tspan class="uuid-1cabd7c4-b43b-4052-a467-399a79de46ca" x="255.18" y="0">T</tspan><tspan class="uuid-2c514670-d889-4220-92d8-e691b0b2c6d0" x="318.56" y="0">O</tspan></text>
  <g>
    <path class="uuid-d2fe5b9c-7ba1-403d-974b-71908dcf8bca" d="m357.34,188.75v7.87h-2.15v-21.42h8.17c4.13,0,6.73,2.69,6.73,6.73s-2.63,6.82-6.73,6.82h-6.01Zm0-11.61v9.67h5.6c3.11,0,4.91-1.97,4.91-4.91s-1.83-4.76-4.79-4.76h-5.71Z"/>
    <path class="uuid-d2fe5b9c-7ba1-403d-974b-71908dcf8bca" d="m371.65,201.23h1.59c1.26,0,2.51-.09,3.23-2.04l.63-1.71-5.86-15.35h2.18l4.67,12.63,4.58-12.63h2.12l-6.64,17.8c-.84,2.27-2.24,3.2-4.31,3.2-.87,0-1.53-.06-2.18-.21v-1.71Z"/>
    <path class="uuid-d2fe5b9c-7ba1-403d-974b-71908dcf8bca" d="m388.49,196.62v-12.75h-2.9v-1.74h2.9v-4.58h2.03v4.58h2.9v1.74h-2.9v12.75h-2.03Z"/>
    <path class="uuid-d2fe5b9c-7ba1-403d-974b-71908dcf8bca" d="m396.13,196.59v-21.78h2.06v9.84c.93-1.74,2.69-2.9,5.12-2.9,3.8,0,5.51,2.36,5.51,6.01v8.86h-2.06v-8.41c0-3.38-1.59-4.58-3.83-4.58-3.11,0-4.73,2.3-4.73,5.09v7.87h-2.06Z"/>
    <path class="uuid-d2fe5b9c-7ba1-403d-974b-71908dcf8bca" d="m419.29,181.75c4.25,0,7.36,3.2,7.36,7.63s-3.11,7.6-7.36,7.6-7.36-3.2-7.36-7.6,3.11-7.63,7.36-7.63Zm0,13.38c3.08,0,5.27-2.36,5.27-5.78s-2.18-5.75-5.27-5.75-5.27,2.39-5.27,5.75,2.15,5.78,5.27,5.78Z"/>
    <path class="uuid-d2fe5b9c-7ba1-403d-974b-71908dcf8bca" d="m429.94,196.62v-14.48h1.8l.3,2.51c.96-1.86,2.87-2.9,4.97-2.9,3.98,0,5.62,2.36,5.62,6.01v8.86h-2.06v-8.41c0-3.38-1.53-4.58-3.92-4.58-2.96,0-4.64,2.15-4.64,5.42v7.57h-2.07Z"/>
    <path class="uuid-d2fe5b9c-7ba1-403d-974b-71908dcf8bca" d="m457.65,188.75v7.87h-2.15v-21.42h8.17c4.13,0,6.73,2.69,6.73,6.73s-2.63,6.82-6.73,6.82h-6.01Zm0-11.61v9.67h5.6c3.11,0,4.91-1.97,4.91-4.91s-1.83-4.76-4.79-4.76h-5.71Z"/>
    <path class="uuid-d2fe5b9c-7ba1-403d-974b-71908dcf8bca" d="m473.42,196.59v-21.78h2.07v9.84c.93-1.74,2.69-2.9,5.12-2.9,3.8,0,5.51,2.36,5.51,6.01v8.86h-2.06v-8.41c0-3.38-1.59-4.58-3.83-4.58-3.11,0-4.73,2.3-4.73,5.09v7.87h-2.07Z"/>
    <path class="uuid-d2fe5b9c-7ba1-403d-974b-71908dcf8bca" d="m496.58,181.75c4.25,0,7.36,3.2,7.36,7.63s-3.11,7.6-7.36,7.6-7.36-3.2-7.36-7.6,3.11-7.63,7.36-7.63Zm0,13.38c3.08,0,5.27-2.36,5.27-5.78s-2.18-5.75-5.27-5.75-5.27,2.39-5.27,5.75,2.15,5.78,5.27,5.78Z"/>
    <path class="uuid-d2fe5b9c-7ba1-403d-974b-71908dcf8bca" d="m508.37,196.62v-12.75h-2.9v-1.74h2.9v-4.58h2.03v4.58h2.9v1.74h-2.9v12.75h-2.03Z"/>
    <path class="uuid-d2fe5b9c-7ba1-403d-974b-71908dcf8bca" d="m522.2,181.75c4.25,0,7.36,3.2,7.36,7.63s-3.11,7.6-7.36,7.6-7.36-3.2-7.36-7.6,3.11-7.63,7.36-7.63Zm0,13.38c3.08,0,5.27-2.36,5.27-5.78s-2.18-5.75-5.27-5.75-5.27,2.39-5.27,5.75,2.15,5.78,5.27,5.78Z"/>
    <path class="uuid-d2fe5b9c-7ba1-403d-974b-71908dcf8bca" d="m532.1,192.7c0-2.66,2.03-4.34,5.42-4.61l4.79-.39v-.48c0-2.84-1.71-3.74-3.83-3.74-2.51,0-4.01,1.14-4.01,3.08h-1.88c0-2.93,2.39-4.82,5.96-4.82,3.35,0,5.8,1.67,5.8,5.5v9.37h-1.74l-.27-2.54c-.9,1.83-2.87,2.9-5.33,2.9-3.08,0-4.91-1.74-4.91-4.28Zm10.2-2.66v-.78l-4.28.33c-2.72.24-3.83,1.44-3.83,3.05,0,1.77,1.32,2.66,3.29,2.66,3.05,0,4.82-2.12,4.82-5.27Z"/>
    <path class="uuid-d2fe5b9c-7ba1-403d-974b-71908dcf8bca" d="m554.46,181.75c3.35,0,5.8,1.94,6.37,4.94h-2.06c-.54-2-2.27-3.11-4.28-3.11-2.93,0-5,2.24-5,5.8s1.92,5.75,4.85,5.75c2.15,0,3.89-1.2,4.46-3.05h2.09c-.69,2.96-3.26,4.91-6.55,4.91-4.1,0-6.88-3.02-6.88-7.57s2.78-7.66,7-7.66Z"/>
    <path class="uuid-d2fe5b9c-7ba1-403d-974b-71908dcf8bca" d="m570.38,181.75c4.25,0,7.36,3.2,7.36,7.63s-3.11,7.6-7.36,7.6-7.36-3.2-7.36-7.6,3.11-7.63,7.36-7.63Zm0,13.38c3.08,0,5.27-2.36,5.27-5.78s-2.18-5.75-5.27-5.75-5.27,2.39-5.27,5.75,2.16,5.78,5.27,5.78Z"/>
    <path class="uuid-d2fe5b9c-7ba1-403d-974b-71908dcf8bca" d="m592.91,182.13v14.48h-1.79l-.27-2.45c-.81,1.68-2.81,2.81-5.09,2.81-3.41,0-5.27-2.33-5.27-5.87v-9.01h2.09v8.35c0,3.44,1.53,4.67,3.83,4.67,2.78,0,4.43-1.86,4.43-5.3v-7.69h2.06Z"/>
    <path class="uuid-d2fe5b9c-7ba1-403d-974b-71908dcf8bca" d="m597.67,192.55c0,1.68,1.26,2.72,3.29,2.72,2.24,0,3.56-.96,3.56-2.51,0-1.2-.6-1.88-2.3-2.3l-2.48-.63c-2.51-.63-3.74-1.95-3.74-3.92,0-2.54,2.12-4.16,5.24-4.16s5.03,1.67,5.12,4.37h-2c-.06-1.68-1.23-2.66-3.17-2.66s-3.17.87-3.17,2.42c0,1.11.78,1.88,2.36,2.27l2.48.63c2.51.63,3.65,1.8,3.65,3.89,0,2.6-2.21,4.31-5.5,4.31s-5.3-1.74-5.3-4.43h1.97Z"/>
    <path class="uuid-d2fe5b9c-7ba1-403d-974b-71908dcf8bca" d="m611.2,196.62v-12.75h-2.9v-1.74h2.9v-4.58h2.03v4.58h2.9v1.74h-2.9v12.75h-2.03Z"/>
    <path class="uuid-d2fe5b9c-7ba1-403d-974b-71908dcf8bca" d="m618.32,176.63c0-.84.69-1.56,1.53-1.56s1.56.72,1.56,1.56-.72,1.53-1.56,1.53-1.53-.69-1.53-1.53Zm.51,5.51h2.06v14.48h-2.06v-14.48Z"/>
    <path class="uuid-d2fe5b9c-7ba1-403d-974b-71908dcf8bca" d="m631.18,181.75c3.35,0,5.8,1.94,6.37,4.94h-2.06c-.54-2-2.27-3.11-4.28-3.11-2.93,0-5,2.24-5,5.8s1.92,5.75,4.85,5.75c2.16,0,3.89-1.2,4.46-3.05h2.09c-.69,2.96-3.26,4.91-6.55,4.91-4.1,0-6.88-3.02-6.88-7.57s2.78-7.66,7-7.66Z"/>
    <path class="uuid-d2fe5b9c-7ba1-403d-974b-71908dcf8bca" d="m352.94,209.19h15.35v1.98h-6.61v19.45h-2.15v-19.45h-6.58v-1.98Z"/>
    <path class="uuid-d2fe5b9c-7ba1-403d-974b-71908dcf8bca" d="m374.94,215.75c4.25,0,7.36,3.2,7.36,7.63s-3.11,7.6-7.36,7.6-7.36-3.2-7.36-7.6,3.11-7.63,7.36-7.63Zm0,13.38c3.08,0,5.27-2.36,5.27-5.78s-2.18-5.75-5.27-5.75-5.27,2.39-5.27,5.75,2.15,5.78,5.27,5.78Z"/>
    <path class="uuid-d2fe5b9c-7ba1-403d-974b-71908dcf8bca" d="m385.59,230.62v-14.48h1.8l.24,2.06c.72-1.53,2.33-2.45,4.37-2.45,2.27,0,3.98,1.2,4.67,3.08.66-1.89,2.42-3.08,4.76-3.08,3.14,0,5.21,2.03,5.21,5.39v9.49h-2v-9.07c0-2.48-1.38-3.95-3.59-3.95-2.42,0-3.86,1.83-3.86,4.07v8.95h-2.03v-9.1c0-2.45-1.41-3.89-3.59-3.89-2.42,0-3.89,1.79-3.89,4.01v8.98h-2.06Z"/>
    <path class="uuid-d2fe5b9c-7ba1-403d-974b-71908dcf8bca" d="m417.13,215.75c4.25,0,7.36,3.2,7.36,7.63s-3.11,7.6-7.36,7.6-7.36-3.2-7.36-7.6,3.11-7.63,7.36-7.63Zm0,13.38c3.08,0,5.27-2.36,5.27-5.78s-2.18-5.75-5.27-5.75-5.27,2.39-5.27,5.75,2.15,5.78,5.27,5.78Z"/>
    <path class="uuid-d2fe5b9c-7ba1-403d-974b-71908dcf8bca" d="m433.59,215.75c2.51,0,4.43,1.17,5.36,3.29l.21-2.9h1.8v14.03c0,4.31-2.75,7.12-7,7.12-3.71,0-6.31-2.09-6.88-5.6h2.06c.45,2.33,2.24,3.71,4.85,3.71,2.96,0,4.94-2,4.94-5.03v-3.44c-.99,2.04-2.99,3.23-5.48,3.23-4.13,0-6.64-3.26-6.64-7.21s2.54-7.21,6.79-7.21Zm.15,12.57c3.14,0,5-2.27,5-5.39s-1.79-5.36-4.97-5.36-4.91,2.42-4.91,5.36,1.83,5.39,4.88,5.39Z"/>
    <path class="uuid-d2fe5b9c-7ba1-403d-974b-71908dcf8bca" d="m452.83,217.81h-1.14c-2.66,0-4.37,1.79-4.37,4.55v8.26h-2.06v-14.48h1.95l.15,2.24c.57-1.56,2.09-2.57,4.13-2.57.45,0,.84.03,1.35.15v1.86Z"/>
    <path class="uuid-d2fe5b9c-7ba1-403d-974b-71908dcf8bca" d="m454.24,226.7c0-2.66,2.03-4.34,5.42-4.61l4.79-.39v-.48c0-2.84-1.71-3.74-3.83-3.74-2.51,0-4.01,1.14-4.01,3.08h-1.88c0-2.93,2.39-4.82,5.96-4.82,3.35,0,5.8,1.67,5.8,5.5v9.37h-1.74l-.27-2.54c-.9,1.83-2.87,2.9-5.33,2.9-3.08,0-4.91-1.74-4.91-4.28Zm10.2-2.66v-.78l-4.28.33c-2.72.24-3.83,1.44-3.83,3.05,0,1.77,1.32,2.66,3.29,2.66,3.05,0,4.82-2.12,4.82-5.27Z"/>
    <path class="uuid-d2fe5b9c-7ba1-403d-974b-71908dcf8bca" d="m470.61,216.13h1.8l.21,2.93c1.02-2.24,3.05-3.32,5.48-3.32,4.19,0,6.7,3.2,6.7,7.57s-2.42,7.66-6.7,7.66c-2.45,0-4.4-1.05-5.42-3.14v9.1h-2.07v-20.8Zm7.12,12.99c3.14,0,4.97-2.42,4.97-5.75s-1.83-5.75-4.97-5.75-5.03,2.39-5.03,5.75,1.86,5.75,5.03,5.75Z"/>
    <path class="uuid-d2fe5b9c-7ba1-403d-974b-71908dcf8bca" d="m488.09,230.59v-21.78h2.06v9.84c.93-1.74,2.69-2.9,5.12-2.9,3.8,0,5.51,2.36,5.51,6.01v8.86h-2.07v-8.41c0-3.38-1.59-4.58-3.83-4.58-3.11,0-4.73,2.3-4.73,5.09v7.87h-2.06Z"/>
    <path class="uuid-d2fe5b9c-7ba1-403d-974b-71908dcf8bca" d="m503.14,235.23h1.59c1.26,0,2.51-.09,3.23-2.04l.63-1.71-5.86-15.35h2.18l4.67,12.63,4.58-12.63h2.12l-6.64,17.8c-.84,2.27-2.25,3.2-4.31,3.2-.87,0-1.53-.06-2.18-.21v-1.71Z"/>
    <path class="uuid-d2fe5b9c-7ba1-403d-974b-71908dcf8bca" d="m525.25,230.62l7.87-21.42h2.66l7.96,21.42h-2.24l-2.09-5.69h-9.88l-2.09,5.69h-2.18Zm4.94-7.57h8.53l-4.01-10.83c-.09-.3-.24-.66-.27-.87-.03.18-.15.57-.27.87l-3.98,10.83Z"/>
    <path class="uuid-d2fe5b9c-7ba1-403d-974b-71908dcf8bca" d="m546.29,230.62v-14.48h1.8l.3,2.51c.96-1.86,2.87-2.9,4.97-2.9,3.98,0,5.62,2.36,5.62,6.01v8.86h-2.06v-8.41c0-3.38-1.53-4.58-3.92-4.58-2.96,0-4.64,2.15-4.64,5.42v7.57h-2.07Z"/>
    <path class="uuid-d2fe5b9c-7ba1-403d-974b-71908dcf8bca" d="m562.36,226.7c0-2.66,2.03-4.34,5.42-4.61l4.79-.39v-.48c0-2.84-1.71-3.74-3.83-3.74-2.51,0-4.01,1.14-4.01,3.08h-1.88c0-2.93,2.39-4.82,5.96-4.82,3.35,0,5.8,1.67,5.8,5.5v9.37h-1.74l-.27-2.54c-.9,1.83-2.87,2.9-5.33,2.9-3.08,0-4.91-1.74-4.91-4.28Zm10.2-2.66v-.78l-4.28.33c-2.72.24-3.83,1.44-3.83,3.05,0,1.77,1.32,2.66,3.29,2.66,3.05,0,4.82-2.12,4.82-5.27Z"/>
    <path class="uuid-d2fe5b9c-7ba1-403d-974b-71908dcf8bca" d="m578.82,230.62v-21.81h2.07v21.81h-2.07Z"/>
    <path class="uuid-d2fe5b9c-7ba1-403d-974b-71908dcf8bca" d="m583.81,235.23h1.59c1.26,0,2.51-.09,3.23-2.04l.63-1.71-5.86-15.35h2.18l4.67,12.63,4.58-12.63h2.12l-6.64,17.8c-.84,2.27-2.25,3.2-4.31,3.2-.87,0-1.53-.06-2.18-.21v-1.71Z"/>
    <path class="uuid-d2fe5b9c-7ba1-403d-974b-71908dcf8bca" d="m600.03,226.55c0,1.68,1.26,2.72,3.29,2.72,2.24,0,3.56-.96,3.56-2.51,0-1.2-.6-1.88-2.3-2.3l-2.48-.63c-2.51-.63-3.74-1.95-3.74-3.92,0-2.54,2.12-4.16,5.24-4.16s5.03,1.67,5.12,4.37h-2c-.06-1.68-1.23-2.66-3.17-2.66s-3.17.87-3.17,2.42c0,1.11.78,1.88,2.36,2.27l2.48.63c2.51.63,3.65,1.8,3.65,3.89,0,2.6-2.21,4.31-5.5,4.31s-5.3-1.74-5.3-4.43h1.97Z"/>
    <path class="uuid-d2fe5b9c-7ba1-403d-974b-71908dcf8bca" d="m611.76,210.63c0-.84.69-1.56,1.53-1.56s1.56.72,1.56,1.56-.72,1.53-1.56,1.53-1.53-.69-1.53-1.53Zm.51,5.51h2.07v14.48h-2.07v-14.48Z"/>
    <path class="uuid-d2fe5b9c-7ba1-403d-974b-71908dcf8bca" d="m619.39,226.55c0,1.68,1.26,2.72,3.29,2.72,2.24,0,3.56-.96,3.56-2.51,0-1.2-.6-1.88-2.3-2.3l-2.48-.63c-2.51-.63-3.74-1.95-3.74-3.92,0-2.54,2.12-4.16,5.24-4.16s5.03,1.67,5.12,4.37h-2c-.06-1.68-1.23-2.66-3.17-2.66s-3.17.87-3.17,2.42c0,1.11.78,1.88,2.36,2.27l2.48.63c2.51.63,3.65,1.8,3.65,3.89,0,2.6-2.21,4.31-5.51,4.31s-5.3-1.74-5.3-4.43h1.97Z"/>
    <path class="uuid-d2fe5b9c-7ba1-403d-974b-71908dcf8bca" d="m638.13,209.19h15.35v1.98h-6.61v19.45h-2.16v-19.45h-6.58v-1.98Z"/>
    <path class="uuid-d2fe5b9c-7ba1-403d-974b-71908dcf8bca" d="m660.12,215.75c4.25,0,7.36,3.2,7.36,7.63s-3.11,7.6-7.36,7.6-7.36-3.2-7.36-7.6,3.11-7.63,7.36-7.63Zm0,13.38c3.08,0,5.27-2.36,5.27-5.78s-2.18-5.75-5.27-5.75-5.27,2.39-5.27,5.75,2.15,5.78,5.27,5.78Z"/>
    <path class="uuid-d2fe5b9c-7ba1-403d-974b-71908dcf8bca" d="m677.12,215.75c4.25,0,7.36,3.2,7.36,7.63s-3.11,7.6-7.36,7.6-7.36-3.2-7.36-7.6,3.11-7.63,7.36-7.63Zm0,13.38c3.08,0,5.27-2.36,5.27-5.78s-2.18-5.75-5.27-5.75-5.27,2.39-5.27,5.75,2.15,5.78,5.27,5.78Z"/>
    <path class="uuid-d2fe5b9c-7ba1-403d-974b-71908dcf8bca" d="m687.86,230.62v-21.81h2.06v21.81h-2.06Z"/>
    <path class="uuid-d2fe5b9c-7ba1-403d-974b-71908dcf8bca" d="m694.42,230.62v-21.81h2.06v14.81l7.18-7.48h2.6l-5.57,5.78,5.6,8.71h-2.39l-4.61-7.24-2.81,2.9v4.34h-2.06Z"/>
    <path class="uuid-d2fe5b9c-7ba1-403d-974b-71908dcf8bca" d="m708.24,210.63c0-.84.69-1.56,1.53-1.56s1.56.72,1.56,1.56-.72,1.53-1.56,1.53-1.53-.69-1.53-1.53Zm.51,5.51h2.06v14.48h-2.06v-14.48Z"/>
    <path class="uuid-d2fe5b9c-7ba1-403d-974b-71908dcf8bca" d="m716.41,230.62v-12.75h-2.9v-1.74h2.9v-4.58h2.04v4.58h2.9v1.74h-2.9v12.75h-2.04Z"/>
  </g>
</svg>