<?xml version="1.0" encoding="UTF-8"?>
<svg id="uuid-05fa175f-e04b-412f-9bd8-30d58a984d95" data-name="Layer 1" xmlns="http://www.w3.org/2000/svg" viewBox="0 0 406.21 147.48">
  <defs>
    <style>
      .uuid-b842649e-0ea6-4515-a316-46d298dec790 {
        letter-spacing: .1em;
      }

      .uuid-8d7109c1-8ee5-497d-87af-dce404c98842 {
        letter-spacing: .15em;
      }

      .uuid-6b9d9eb6-2b2b-4954-99df-2d2aca98e629 {
        letter-spacing: .1em;
      }

      .uuid-59f103b2-cc8e-4e44-9499-474ef0c3fccd {
        letter-spacing: .13em;
      }

      .uuid-61dcb816-e571-4635-87cf-909cda18a0b1 {
        font-family: Bilo-Medium, Bilo;
        font-size: 91.99px;
        font-weight: 500;
      }

      .uuid-61dcb816-e571-4635-87cf-909cda18a0b1, .uuid-71d7f910-7bcc-46ca-91fc-3888b7c7f962 {
        fill: #ec6a5d;
      }
    </style>
  </defs>
  <text class="uuid-61dcb816-e571-4635-87cf-909cda18a0b1" transform="translate(6.91 68.01)"><tspan class="uuid-b842649e-0ea6-4515-a316-46d298dec790" x="0" y="0">P</tspan><tspan class="uuid-6b9d9eb6-2b2b-4954-99df-2d2aca98e629" x="62" y="0">ATA</tspan><tspan class="uuid-59f103b2-cc8e-4e44-9499-474ef0c3fccd" x="255.18" y="0">T</tspan><tspan class="uuid-8d7109c1-8ee5-497d-87af-dce404c98842" x="318.56" y="0">O</tspan></text>
  <g>
    <path class="uuid-71d7f910-7bcc-46ca-91fc-3888b7c7f962" d="m16.69,94.45v7.87h-2.16v-21.42h8.17c4.13,0,6.73,2.69,6.73,6.73s-2.63,6.82-6.73,6.82h-6.01Zm0-11.61v9.67h5.59c3.11,0,4.91-1.97,4.91-4.91s-1.83-4.76-4.79-4.76h-5.71Z"/>
    <path class="uuid-71d7f910-7bcc-46ca-91fc-3888b7c7f962" d="m30.99,106.93h1.59c1.26,0,2.51-.09,3.23-2.04l.63-1.71-5.86-15.35h2.18l4.67,12.63,4.58-12.63h2.12l-6.64,17.8c-.84,2.27-2.24,3.2-4.31,3.2-.87,0-1.53-.06-2.18-.21v-1.71Z"/>
    <path class="uuid-71d7f910-7bcc-46ca-91fc-3888b7c7f962" d="m47.84,102.32v-12.75h-2.9v-1.74h2.9v-4.58h2.03v4.58h2.9v1.74h-2.9v12.75h-2.03Z"/>
    <path class="uuid-71d7f910-7bcc-46ca-91fc-3888b7c7f962" d="m55.47,102.29v-21.78h2.06v9.84c.93-1.74,2.69-2.9,5.12-2.9,3.8,0,5.5,2.36,5.5,6.01v8.86h-2.06v-8.41c0-3.38-1.59-4.58-3.83-4.58-3.11,0-4.73,2.3-4.73,5.09v7.87h-2.06Z"/>
    <path class="uuid-71d7f910-7bcc-46ca-91fc-3888b7c7f962" d="m78.63,87.45c4.25,0,7.36,3.2,7.36,7.63s-3.11,7.6-7.36,7.6-7.36-3.2-7.36-7.6,3.11-7.63,7.36-7.63Zm0,13.38c3.08,0,5.27-2.36,5.27-5.78s-2.18-5.75-5.27-5.75-5.27,2.39-5.27,5.75,2.16,5.78,5.27,5.78Z"/>
    <path class="uuid-71d7f910-7bcc-46ca-91fc-3888b7c7f962" d="m89.28,102.32v-14.48h1.79l.3,2.51c.96-1.86,2.87-2.9,4.97-2.9,3.98,0,5.62,2.36,5.62,6.01v8.86h-2.06v-8.41c0-3.38-1.53-4.58-3.92-4.58-2.96,0-4.64,2.15-4.64,5.42v7.57h-2.06Z"/>
    <path class="uuid-71d7f910-7bcc-46ca-91fc-3888b7c7f962" d="m116.99,94.45v7.87h-2.16v-21.42h8.17c4.13,0,6.73,2.69,6.73,6.73s-2.63,6.82-6.73,6.82h-6.01Zm0-11.61v9.67h5.59c3.11,0,4.91-1.97,4.91-4.91s-1.83-4.76-4.79-4.76h-5.71Z"/>
    <path class="uuid-71d7f910-7bcc-46ca-91fc-3888b7c7f962" d="m132.76,102.29v-21.78h2.06v9.84c.93-1.74,2.69-2.9,5.12-2.9,3.8,0,5.5,2.36,5.5,6.01v8.86h-2.06v-8.41c0-3.38-1.59-4.58-3.83-4.58-3.11,0-4.73,2.3-4.73,5.09v7.87h-2.06Z"/>
    <path class="uuid-71d7f910-7bcc-46ca-91fc-3888b7c7f962" d="m155.93,87.45c4.25,0,7.36,3.2,7.36,7.63s-3.11,7.6-7.36,7.6-7.36-3.2-7.36-7.6,3.11-7.63,7.36-7.63Zm0,13.38c3.08,0,5.27-2.36,5.27-5.78s-2.18-5.75-5.27-5.75-5.27,2.39-5.27,5.75,2.16,5.78,5.27,5.78Z"/>
    <path class="uuid-71d7f910-7bcc-46ca-91fc-3888b7c7f962" d="m167.72,102.32v-12.75h-2.9v-1.74h2.9v-4.58h2.04v4.58h2.9v1.74h-2.9v12.75h-2.04Z"/>
    <path class="uuid-71d7f910-7bcc-46ca-91fc-3888b7c7f962" d="m181.54,87.45c4.25,0,7.36,3.2,7.36,7.63s-3.11,7.6-7.36,7.6-7.36-3.2-7.36-7.6,3.11-7.63,7.36-7.63Zm0,13.38c3.08,0,5.27-2.36,5.27-5.78s-2.18-5.75-5.27-5.75-5.27,2.39-5.27,5.75,2.16,5.78,5.27,5.78Z"/>
    <path class="uuid-71d7f910-7bcc-46ca-91fc-3888b7c7f962" d="m191.45,98.4c0-2.66,2.04-4.34,5.42-4.61l4.79-.39v-.48c0-2.84-1.71-3.74-3.83-3.74-2.51,0-4.01,1.14-4.01,3.08h-1.88c0-2.93,2.39-4.82,5.95-4.82,3.35,0,5.8,1.67,5.8,5.5v9.37h-1.74l-.27-2.54c-.9,1.83-2.87,2.9-5.33,2.9-3.08,0-4.91-1.74-4.91-4.28Zm10.2-2.66v-.78l-4.28.33c-2.72.24-3.83,1.44-3.83,3.05,0,1.77,1.32,2.66,3.29,2.66,3.05,0,4.82-2.12,4.82-5.27Z"/>
    <path class="uuid-71d7f910-7bcc-46ca-91fc-3888b7c7f962" d="m213.8,87.45c3.35,0,5.8,1.94,6.37,4.94h-2.06c-.54-2-2.27-3.11-4.28-3.11-2.93,0-5,2.24-5,5.8s1.92,5.75,4.85,5.75c2.16,0,3.89-1.2,4.46-3.05h2.09c-.69,2.96-3.26,4.91-6.55,4.91-4.1,0-6.88-3.02-6.88-7.57s2.78-7.66,7-7.66Z"/>
    <path class="uuid-71d7f910-7bcc-46ca-91fc-3888b7c7f962" d="m229.72,87.45c4.25,0,7.36,3.2,7.36,7.63s-3.11,7.6-7.36,7.6-7.36-3.2-7.36-7.6,3.11-7.63,7.36-7.63Zm0,13.38c3.08,0,5.27-2.36,5.27-5.78s-2.18-5.75-5.27-5.75-5.27,2.39-5.27,5.75,2.15,5.78,5.27,5.78Z"/>
    <path class="uuid-71d7f910-7bcc-46ca-91fc-3888b7c7f962" d="m252.25,87.84v14.48h-1.8l-.27-2.45c-.81,1.68-2.81,2.81-5.09,2.81-3.41,0-5.27-2.33-5.27-5.87v-9.01h2.09v8.35c0,3.44,1.53,4.67,3.83,4.67,2.78,0,4.43-1.86,4.43-5.3v-7.69h2.06Z"/>
    <path class="uuid-71d7f910-7bcc-46ca-91fc-3888b7c7f962" d="m257.01,98.25c0,1.68,1.26,2.72,3.29,2.72,2.24,0,3.56-.96,3.56-2.51,0-1.2-.6-1.88-2.3-2.3l-2.48-.63c-2.51-.63-3.74-1.95-3.74-3.92,0-2.54,2.12-4.16,5.24-4.16s5.03,1.67,5.12,4.37h-2c-.06-1.68-1.23-2.66-3.17-2.66s-3.17.87-3.17,2.42c0,1.11.78,1.88,2.36,2.27l2.48.63c2.51.63,3.65,1.8,3.65,3.89,0,2.6-2.21,4.31-5.51,4.31s-5.3-1.74-5.3-4.43h1.97Z"/>
    <path class="uuid-71d7f910-7bcc-46ca-91fc-3888b7c7f962" d="m270.54,102.32v-12.75h-2.9v-1.74h2.9v-4.58h2.04v4.58h2.9v1.74h-2.9v12.75h-2.04Z"/>
    <path class="uuid-71d7f910-7bcc-46ca-91fc-3888b7c7f962" d="m277.66,82.33c0-.84.69-1.56,1.53-1.56s1.56.72,1.56,1.56-.72,1.53-1.56,1.53-1.53-.69-1.53-1.53Zm.51,5.51h2.07v14.48h-2.07v-14.48Z"/>
    <path class="uuid-71d7f910-7bcc-46ca-91fc-3888b7c7f962" d="m290.53,87.45c3.35,0,5.81,1.94,6.37,4.94h-2.06c-.54-2-2.27-3.11-4.28-3.11-2.93,0-5,2.24-5,5.8s1.92,5.75,4.85,5.75c2.15,0,3.89-1.2,4.46-3.05h2.09c-.69,2.96-3.26,4.91-6.55,4.91-4.1,0-6.88-3.02-6.88-7.57s2.78-7.66,7-7.66Z"/>
    <path class="uuid-71d7f910-7bcc-46ca-91fc-3888b7c7f962" d="m12.29,114.9h15.35v1.98h-6.61v19.45h-2.15v-19.45h-6.58v-1.98Z"/>
    <path class="uuid-71d7f910-7bcc-46ca-91fc-3888b7c7f962" d="m34.28,121.45c4.25,0,7.36,3.2,7.36,7.63s-3.11,7.6-7.36,7.6-7.36-3.2-7.36-7.6,3.11-7.63,7.36-7.63Zm0,13.38c3.08,0,5.27-2.36,5.27-5.78s-2.18-5.75-5.27-5.75-5.27,2.39-5.27,5.75,2.15,5.78,5.27,5.78Z"/>
    <path class="uuid-71d7f910-7bcc-46ca-91fc-3888b7c7f962" d="m44.94,136.32v-14.48h1.79l.24,2.06c.72-1.53,2.33-2.45,4.37-2.45,2.27,0,3.98,1.2,4.67,3.08.66-1.89,2.42-3.08,4.76-3.08,3.14,0,5.21,2.03,5.21,5.39v9.49h-2v-9.07c0-2.48-1.38-3.95-3.59-3.95-2.42,0-3.86,1.83-3.86,4.07v8.95h-2.04v-9.1c0-2.45-1.41-3.89-3.59-3.89-2.42,0-3.89,1.79-3.89,4.01v8.98h-2.06Z"/>
    <path class="uuid-71d7f910-7bcc-46ca-91fc-3888b7c7f962" d="m76.48,121.45c4.25,0,7.36,3.2,7.36,7.63s-3.11,7.6-7.36,7.6-7.36-3.2-7.36-7.6,3.11-7.63,7.36-7.63Zm0,13.38c3.08,0,5.27-2.36,5.27-5.78s-2.18-5.75-5.27-5.75-5.27,2.39-5.27,5.75,2.16,5.78,5.27,5.78Z"/>
    <path class="uuid-71d7f910-7bcc-46ca-91fc-3888b7c7f962" d="m92.93,121.45c2.51,0,4.43,1.17,5.36,3.29l.21-2.9h1.79v14.03c0,4.31-2.75,7.12-7,7.12-3.71,0-6.31-2.09-6.88-5.6h2.06c.45,2.33,2.24,3.71,4.85,3.71,2.96,0,4.94-2,4.94-5.03v-3.44c-.99,2.04-2.99,3.23-5.48,3.23-4.13,0-6.64-3.26-6.64-7.21s2.54-7.21,6.79-7.21Zm.15,12.57c3.14,0,5-2.27,5-5.39s-1.8-5.36-4.97-5.36-4.91,2.42-4.91,5.36,1.83,5.39,4.88,5.39Z"/>
    <path class="uuid-71d7f910-7bcc-46ca-91fc-3888b7c7f962" d="m112.18,123.51h-1.14c-2.66,0-4.37,1.79-4.37,4.55v8.26h-2.07v-14.48h1.95l.15,2.24c.57-1.56,2.09-2.57,4.13-2.57.45,0,.84.03,1.35.15v1.86Z"/>
    <path class="uuid-71d7f910-7bcc-46ca-91fc-3888b7c7f962" d="m113.58,132.4c0-2.66,2.04-4.34,5.42-4.61l4.79-.39v-.48c0-2.84-1.71-3.74-3.83-3.74-2.51,0-4.01,1.14-4.01,3.08h-1.88c0-2.93,2.39-4.82,5.95-4.82,3.35,0,5.8,1.67,5.8,5.5v9.37h-1.74l-.27-2.54c-.9,1.83-2.87,2.9-5.33,2.9-3.08,0-4.91-1.74-4.91-4.28Zm10.2-2.66v-.78l-4.28.33c-2.72.24-3.83,1.44-3.83,3.05,0,1.77,1.32,2.66,3.29,2.66,3.05,0,4.82-2.12,4.82-5.27Z"/>
    <path class="uuid-71d7f910-7bcc-46ca-91fc-3888b7c7f962" d="m129.95,121.84h1.79l.21,2.93c1.02-2.24,3.05-3.32,5.48-3.32,4.19,0,6.7,3.2,6.7,7.57s-2.42,7.66-6.7,7.66c-2.45,0-4.4-1.05-5.42-3.14v9.1h-2.06v-20.8Zm7.12,12.99c3.14,0,4.97-2.42,4.97-5.75s-1.83-5.75-4.97-5.75-5.03,2.39-5.03,5.75,1.85,5.75,5.03,5.75Z"/>
    <path class="uuid-71d7f910-7bcc-46ca-91fc-3888b7c7f962" d="m147.43,136.29v-21.78h2.07v9.84c.93-1.74,2.69-2.9,5.12-2.9,3.8,0,5.51,2.36,5.51,6.01v8.86h-2.06v-8.41c0-3.38-1.59-4.58-3.83-4.58-3.11,0-4.73,2.3-4.73,5.09v7.87h-2.07Z"/>
    <path class="uuid-71d7f910-7bcc-46ca-91fc-3888b7c7f962" d="m162.48,140.93h1.59c1.26,0,2.51-.09,3.23-2.04l.63-1.71-5.87-15.35h2.18l4.67,12.63,4.58-12.63h2.12l-6.64,17.8c-.84,2.27-2.24,3.2-4.31,3.2-.87,0-1.53-.06-2.18-.21v-1.71Z"/>
    <path class="uuid-71d7f910-7bcc-46ca-91fc-3888b7c7f962" d="m184.59,136.32l7.87-21.42h2.66l7.96,21.42h-2.24l-2.09-5.69h-9.87l-2.09,5.69h-2.18Zm4.94-7.57h8.53l-4.01-10.83c-.09-.3-.24-.66-.27-.87-.03.18-.15.57-.27.87l-3.98,10.83Z"/>
    <path class="uuid-71d7f910-7bcc-46ca-91fc-3888b7c7f962" d="m205.63,136.32v-14.48h1.79l.3,2.51c.96-1.86,2.87-2.9,4.97-2.9,3.98,0,5.62,2.36,5.62,6.01v8.86h-2.06v-8.41c0-3.38-1.53-4.58-3.92-4.58-2.96,0-4.64,2.15-4.64,5.42v7.57h-2.06Z"/>
    <path class="uuid-71d7f910-7bcc-46ca-91fc-3888b7c7f962" d="m221.7,132.4c0-2.66,2.04-4.34,5.42-4.61l4.79-.39v-.48c0-2.84-1.71-3.74-3.83-3.74-2.51,0-4.01,1.14-4.01,3.08h-1.88c0-2.93,2.39-4.82,5.95-4.82,3.35,0,5.8,1.67,5.8,5.5v9.37h-1.74l-.27-2.54c-.9,1.83-2.87,2.9-5.33,2.9-3.08,0-4.91-1.74-4.91-4.28Zm10.2-2.66v-.78l-4.28.33c-2.72.24-3.83,1.44-3.83,3.05,0,1.77,1.32,2.66,3.29,2.66,3.05,0,4.82-2.12,4.82-5.27Z"/>
    <path class="uuid-71d7f910-7bcc-46ca-91fc-3888b7c7f962" d="m238.16,136.32v-21.81h2.06v21.81h-2.06Z"/>
    <path class="uuid-71d7f910-7bcc-46ca-91fc-3888b7c7f962" d="m243.16,140.93h1.59c1.26,0,2.51-.09,3.23-2.04l.63-1.71-5.87-15.35h2.18l4.67,12.63,4.58-12.63h2.12l-6.64,17.8c-.84,2.27-2.24,3.2-4.31,3.2-.87,0-1.53-.06-2.18-.21v-1.71Z"/>
    <path class="uuid-71d7f910-7bcc-46ca-91fc-3888b7c7f962" d="m259.38,132.25c0,1.68,1.26,2.72,3.29,2.72,2.24,0,3.56-.96,3.56-2.51,0-1.2-.6-1.88-2.3-2.3l-2.48-.63c-2.51-.63-3.74-1.95-3.74-3.92,0-2.54,2.12-4.16,5.24-4.16s5.03,1.67,5.12,4.37h-2c-.06-1.68-1.23-2.66-3.17-2.66s-3.17.87-3.17,2.42c0,1.11.78,1.88,2.36,2.27l2.48.63c2.51.63,3.65,1.8,3.65,3.89,0,2.6-2.21,4.31-5.51,4.31s-5.3-1.74-5.3-4.43h1.97Z"/>
    <path class="uuid-71d7f910-7bcc-46ca-91fc-3888b7c7f962" d="m271.11,116.33c0-.84.69-1.56,1.53-1.56s1.56.72,1.56,1.56-.72,1.53-1.56,1.53-1.53-.69-1.53-1.53Zm.51,5.51h2.06v14.48h-2.06v-14.48Z"/>
    <path class="uuid-71d7f910-7bcc-46ca-91fc-3888b7c7f962" d="m278.74,132.25c0,1.68,1.26,2.72,3.29,2.72,2.24,0,3.56-.96,3.56-2.51,0-1.2-.6-1.88-2.3-2.3l-2.48-.63c-2.51-.63-3.74-1.95-3.74-3.92,0-2.54,2.12-4.16,5.24-4.16s5.03,1.67,5.12,4.37h-2c-.06-1.68-1.23-2.66-3.17-2.66s-3.17.87-3.17,2.42c0,1.11.78,1.88,2.36,2.27l2.48.63c2.51.63,3.65,1.8,3.65,3.89,0,2.6-2.21,4.31-5.51,4.31s-5.3-1.74-5.3-4.43h1.97Z"/>
    <path class="uuid-71d7f910-7bcc-46ca-91fc-3888b7c7f962" d="m297.47,114.9h15.35v1.98h-6.61v19.45h-2.15v-19.45h-6.58v-1.98Z"/>
    <path class="uuid-71d7f910-7bcc-46ca-91fc-3888b7c7f962" d="m319.46,121.45c4.25,0,7.36,3.2,7.36,7.63s-3.11,7.6-7.36,7.6-7.36-3.2-7.36-7.6,3.11-7.63,7.36-7.63Zm0,13.38c3.08,0,5.27-2.36,5.27-5.78s-2.18-5.75-5.27-5.75-5.27,2.39-5.27,5.75,2.16,5.78,5.27,5.78Z"/>
    <path class="uuid-71d7f910-7bcc-46ca-91fc-3888b7c7f962" d="m336.46,121.45c4.25,0,7.36,3.2,7.36,7.63s-3.11,7.6-7.36,7.6-7.36-3.2-7.36-7.6,3.11-7.63,7.36-7.63Zm0,13.38c3.08,0,5.27-2.36,5.27-5.78s-2.18-5.75-5.27-5.75-5.27,2.39-5.27,5.75,2.16,5.78,5.27,5.78Z"/>
    <path class="uuid-71d7f910-7bcc-46ca-91fc-3888b7c7f962" d="m347.21,136.32v-21.81h2.06v21.81h-2.06Z"/>
    <path class="uuid-71d7f910-7bcc-46ca-91fc-3888b7c7f962" d="m353.76,136.32v-21.81h2.06v14.81l7.18-7.48h2.6l-5.57,5.78,5.6,8.71h-2.39l-4.61-7.24-2.81,2.9v4.34h-2.06Z"/>
    <path class="uuid-71d7f910-7bcc-46ca-91fc-3888b7c7f962" d="m367.58,116.33c0-.84.69-1.56,1.53-1.56s1.56.72,1.56,1.56-.72,1.53-1.56,1.53-1.53-.69-1.53-1.53Zm.51,5.51h2.07v14.48h-2.07v-14.48Z"/>
    <path class="uuid-71d7f910-7bcc-46ca-91fc-3888b7c7f962" d="m375.75,136.32v-12.75h-2.9v-1.74h2.9v-4.58h2.03v4.58h2.9v1.74h-2.9v12.75h-2.03Z"/>
  </g>
</svg>