<?xml version="1.0" encoding="UTF-8"?>
<svg id="uuid-591ef92c-b8c4-49ec-9072-fa259cb3521f" data-name="Layer 1" xmlns="http://www.w3.org/2000/svg" viewBox="0 0 315.94 314.87">
  <defs>
    <style>
      .uuid-d799ca34-248b-4de7-9c97-ac613a03d690 {
        fill: #67acde;
      }

      .uuid-70000ba4-af74-48ef-ab5c-7f7d96470ec8 {
        fill: none;
      }

      .uuid-70000ba4-af74-48ef-ab5c-7f7d96470ec8, .uuid-5ce1c7e8-e778-4887-876a-fd7790adb015 {
        stroke: #eeb678;
        stroke-miterlimit: 10;
        stroke-width: 3.48px;
      }

      .uuid-65a79447-bbae-4295-b717-6302a00c03c6 {
        fill: #f7efeb;
      }

      .uuid-5ce1c7e8-e778-4887-876a-fd7790adb015 {
        fill: #eeb678;
      }

      .uuid-905242f3-4a5d-4643-b032-019715765a39 {
        fill: #ec6a5d;
      }
    </style>
  </defs>
  <path d="m205.81,152.77l27.67-6.36c1.98-.45,3.2-2.4,2.75-4.35-.45-1.98-2.4-3.2-4.35-2.75l-27.85,6.36c.76,2.29,1.36,4.66,1.77,7.09Zm-7.54-18.84l31.95-23.36c1.63-1.18,1.98-3.44.8-5.08-1.18-1.63-3.48-1.98-5.11-.8l-31.95,23.36c-.1.07-.21.14-.28.24,1.7,1.77,3.2,3.65,4.55,5.67,0-.03.03-.03.03-.03Zm-8.8-27.54c1.01-1.74.38-3.96-1.36-4.97-1.74-1.01-3.96-.38-4.97,1.36l-7.61,13.28c2.29.87,4.52,1.91,6.61,3.13l7.34-12.79Zm-27.05,6.78V35.26c0-2.02-1.63-3.65-3.62-3.65s-3.65,1.63-3.65,3.65v77.91c1.22-.1,2.43-.14,3.65-.14s2.43.03,3.62.14Zm-26.11,5.53c2.23-1.22,4.59-2.26,6.99-3.06-.14-.31-.35-.59-.59-.87l-19.43-19.43c-1.43-1.39-3.72-1.39-5.15,0-1.43,1.43-1.43,3.75,0,5.18l18.18,18.18Zm-34.35,11.06l16.2,6.05c1.29-2.12,2.75-4.17,4.42-6.05-.17-.1-.38-.21-.59-.28l-17.49-6.54c-1.88-.73-4,.24-4.69,2.12-.7,1.88.24,4,2.16,4.69Zm56.81,99.09c25.52,0,48.71-14.05,60.56-36.61.94-1.81.24-4-1.53-4.94-1.81-.94-4-.24-4.94,1.53-10.57,20.2-31.29,32.72-54.1,32.72s-43.22-12.38-53.89-32.37c-.94-1.77-3.13-2.43-4.9-1.49-1.81.97-2.47,3.16-1.53,4.94,11.93,22.36,35.05,36.23,60.32,36.23Zm72.63-30.18c-13.39,27.64-41.89,45.47-72.63,45.47s-58.65-17.24-72.38-44.99c-.87-1.81-3.06-2.54-4.87-1.63-1.81.87-2.54,3.06-1.67,4.87,14.98,30.25,45.2,49.06,78.92,49.06s64.56-19.47,79.2-49.58c.87-1.81.14-4-1.67-4.87-1.84-.9-4-.14-4.9,1.67Zm-154.92-53.99l35.25,8.31c.38-2.43.97-4.8,1.74-7.09l-35.32-8.31c-1.95-.45-3.93.76-4.38,2.71-.49,1.98.73,3.93,2.71,4.38Zm181.31,63.59c-1.81-.9-4-.17-4.87,1.63-17.87,36.09-53.92,58.48-94.15,58.48s-75.83-22.15-93.77-57.82c-.9-1.81-3.09-2.54-4.9-1.63-1.81.9-2.5,3.09-1.6,4.9,19.16,38.14,57.61,61.85,100.27,61.85s81.56-23.95,100.65-62.55c.9-1.81.17-4-1.63-4.87Z"/>
  <path class="uuid-65a79447-bbae-4295-b717-6302a00c03c6" d="m158.95,9.53C76.38,9.53,9.42,76.49,9.42,159.07s66.96,149.57,149.53,149.57,149.57-66.96,149.57-149.57S241.55,9.53,158.95,9.53Zm79.02,192.33c-14.64,30.11-45.72,49.58-79.2,49.58s-63.94-18.81-78.92-49.06c-.87-1.81-.14-4,1.67-4.87,1.81-.9,4-.17,4.87,1.63,13.73,27.74,41.48,44.99,72.38,44.99s59.24-17.84,72.63-45.47c.9-1.81,3.06-2.57,4.9-1.67,1.81.87,2.54,3.06,1.67,4.87Zm-84.38-67.13c1.74-2.61,4.1-4.66,6.85-5.88,5.08-2.23,9.11-.73,9.11-.73l4.9,1.74c4.42,1.56,8,5.11,9.73,9.7,3.44,9.21,1.67,21,1.67,21-.7,6.88-6.88,15.96-10.4,20.62-1.63,2.16-3.72,3.86-6.12,4.94-6.29,2.89-19.43,7.34-31.46,1.7-16.55-7.75-9.25-25.87-9.25-25.87,1.49-4.42,8.52-9.04,12.13-11.2,1.81-1.08,3.37-2.5,4.66-4.21,2.68-3.51,6.29-8.93,8.17-11.82Zm5.18,86.81c22.81,0,43.53-12.52,54.1-32.72.94-1.77,3.13-2.47,4.94-1.53,1.77.94,2.47,3.13,1.53,4.94-11.86,22.56-35.05,36.61-60.56,36.61s-48.4-13.87-60.32-36.23c-.94-1.77-.28-3.96,1.53-4.94,1.77-.94,3.96-.28,4.9,1.49,10.67,19.99,31.32,32.37,53.89,32.37Zm77.46-79.48c.45,1.95-.76,3.89-2.75,4.35l-27.67,6.36c-.42-2.43-1.01-4.8-1.77-7.09l27.85-6.36c1.95-.45,3.89.76,4.35,2.75Zm-42.28-14.01l31.95-23.36c1.63-1.18,3.93-.83,5.11.8,1.18,1.63.83,3.89-.8,5.08l-31.95,23.36s-.03,0-.03.03c-1.36-2.02-2.85-3.89-4.55-5.67.07-.1.17-.17.28-.24Zm-10.81-25.28c1.01-1.74,3.23-2.36,4.97-1.36,1.74,1.01,2.36,3.23,1.36,4.97l-7.34,12.79c-2.09-1.22-4.31-2.26-6.61-3.13l7.61-13.28Zm-27.99-67.52c0-2.02,1.63-3.65,3.65-3.65s3.62,1.63,3.62,3.65v77.91c-1.18-.1-2.4-.14-3.62-.14s-2.43.03-3.65.14V35.26Zm-37.03,60.08c1.43-1.39,3.72-1.39,5.15,0l19.43,19.43c.24.28.45.56.59.87-2.4.8-4.76,1.84-6.99,3.06l-18.18-18.18c-1.43-1.43-1.43-3.75,0-5.18Zm-18.32,29.73c.7-1.88,2.82-2.85,4.69-2.12l17.49,6.54c.21.07.42.17.59.28-1.67,1.88-3.13,3.93-4.42,6.05l-16.2-6.05c-1.91-.7-2.85-2.82-2.16-4.69Zm-26.04,15.23c.45-1.95,2.43-3.16,4.38-2.71l35.32,8.31c-.76,2.29-1.36,4.66-1.74,7.09l-35.25-8.31c-1.98-.45-3.2-2.4-2.71-4.38Zm185.65,72.84c-19.09,38.59-57.64,62.55-100.65,62.55s-81.11-23.71-100.27-61.85c-.9-1.81-.21-4,1.6-4.9,1.81-.9,4-.17,4.9,1.63,17.94,35.67,53.85,57.82,93.77,57.82s76.28-22.39,94.15-58.48c.87-1.81,3.06-2.54,4.87-1.63,1.81.87,2.54,3.06,1.63,4.87Z"/>
  <path class="uuid-5ce1c7e8-e778-4887-876a-fd7790adb015" d="m185.86,160.56c-.7,6.88-6.88,15.96-10.4,20.62-1.63,2.16-3.72,3.86-6.12,4.94-6.29,2.89-19.43,7.34-31.46,1.7-16.55-7.75-9.25-25.87-9.25-25.87,1.49-4.42,8.52-9.04,12.13-11.2,1.81-1.08,3.37-2.5,4.66-4.21,2.68-3.51,6.29-8.93,8.17-11.82,1.74-2.61,4.1-4.66,6.85-5.88,5.08-2.23,9.11-.73,9.11-.73l4.9,1.74c4.42,1.56,8,5.11,9.73,9.7,3.44,9.21,1.67,21,1.67,21Z"/>
  <path class="uuid-70000ba4-af74-48ef-ab5c-7f7d96470ec8" d="m185.86,160.56c-.7,6.88-6.88,15.96-10.4,20.62-1.63,2.16-3.72,3.86-6.12,4.94-6.29,2.89-19.43,7.34-31.46,1.7-16.55-7.75-9.25-25.87-9.25-25.87,1.49-4.42,8.52-9.04,12.13-11.2,1.81-1.08,3.37-2.5,4.66-4.21,2.68-3.51,6.29-8.93,8.17-11.82,1.74-2.61,4.1-4.66,6.85-5.88,5.08-2.23,9.11-.73,9.11-.73l4.9,1.74c4.42,1.56,8,5.11,9.73,9.7,3.44,9.21,1.67,21,1.67,21Z"/>
  <path class="uuid-905242f3-4a5d-4643-b032-019715765a39" d="m162.42,35.26v77.91c-1.18-.1-2.4-.14-3.62-.14s-2.43.03-3.65.14V35.26c0-2.02,1.63-3.65,3.65-3.65s3.62,1.63,3.62,3.65Z"/>
  <path class="uuid-905242f3-4a5d-4643-b032-019715765a39" d="m233.49,146.41l-27.67,6.36c-.42-2.43-1.01-4.8-1.77-7.09l27.85-6.36c1.95-.45,3.89.76,4.35,2.75.45,1.95-.76,3.89-2.75,4.35Z"/>
  <path class="uuid-905242f3-4a5d-4643-b032-019715765a39" d="m113.47,145.89c-.76,2.29-1.36,4.66-1.74,7.09l-35.25-8.31c-1.98-.45-3.2-2.4-2.71-4.38.45-1.95,2.43-3.16,4.38-2.71l35.32,8.31Z"/>
  <path class="uuid-905242f3-4a5d-4643-b032-019715765a39" d="m143.3,115.64c-2.4.8-4.76,1.84-6.99,3.06l-18.18-18.18c-1.43-1.43-1.43-3.75,0-5.18,1.43-1.39,3.72-1.39,5.15,0l19.43,19.43c.24.28.45.56.59.87Z"/>
  <path class="uuid-905242f3-4a5d-4643-b032-019715765a39" d="m230.22,110.57l-31.95,23.36s-.03,0-.03.03c-1.36-2.02-2.85-3.89-4.55-5.67.07-.1.17-.17.28-.24l31.95-23.36c1.63-1.18,3.93-.83,5.11.8,1.18,1.63.83,3.89-.8,5.08Z"/>
  <path class="uuid-905242f3-4a5d-4643-b032-019715765a39" d="m189.47,106.39l-7.34,12.79c-2.09-1.22-4.31-2.26-6.61-3.13l7.61-13.28c1.01-1.74,3.23-2.36,4.97-1.36,1.74,1.01,2.36,3.23,1.36,4.97Z"/>
  <path class="uuid-905242f3-4a5d-4643-b032-019715765a39" d="m122.58,129.76c-1.67,1.88-3.13,3.93-4.42,6.05l-16.2-6.05c-1.91-.7-2.85-2.82-2.16-4.69.7-1.88,2.82-2.85,4.69-2.12l17.49,6.54c.21.07.42.17.59.28Z"/>
  <path class="uuid-d799ca34-248b-4de7-9c97-ac613a03d690" d="m219.34,192.23c-11.86,22.56-35.05,36.61-60.56,36.61s-48.4-13.87-60.32-36.23c-.94-1.77-.28-3.96,1.53-4.94,1.77-.94,3.96-.28,4.9,1.49,10.67,19.99,31.32,32.37,53.89,32.37s43.53-12.52,54.1-32.72c.94-1.77,3.13-2.47,4.94-1.53,1.77.94,2.47,3.13,1.53,4.94Z"/>
  <path class="uuid-d799ca34-248b-4de7-9c97-ac613a03d690" d="m237.97,201.86c-14.64,30.11-45.72,49.58-79.2,49.58s-63.94-18.81-78.92-49.06c-.87-1.81-.14-4,1.67-4.87,1.81-.9,4-.17,4.87,1.63,13.73,27.74,41.48,44.99,72.38,44.99s59.24-17.84,72.63-45.47c.9-1.81,3.06-2.57,4.9-1.67,1.81.87,2.54,3.06,1.67,4.87Z"/>
  <path class="uuid-d799ca34-248b-4de7-9c97-ac613a03d690" d="m259.42,213.13c-19.09,38.59-57.64,62.55-100.65,62.55s-81.11-23.71-100.27-61.85c-.9-1.81-.21-4,1.6-4.9,1.81-.9,4-.17,4.9,1.63,17.94,35.67,53.85,57.82,93.77,57.82s76.28-22.39,94.15-58.48c.87-1.81,3.06-2.54,4.87-1.63,1.81.87,2.54,3.06,1.63,4.87Z"/>
</svg>